<svg width="52" height="8" viewBox="0 0 52 8" fill="none" xmlns="http://www.w3.org/2000/svg">
<g clip-path="url(#clip0_2909_12453)">
<path fill-rule="evenodd" clip-rule="evenodd" d="M3.79214 0.150236C3.98136 0.150236 4.1417 0.208977 4.27218 0.326459C4.4094 0.450681 4.47777 0.597533 4.47777 0.767496C4.47777 0.937459 4.4094 1.08094 4.27218 1.1989C4.20834 1.25997 4.13308 1.30782 4.0507 1.33972C3.96832 1.37161 3.88045 1.38692 3.79214 1.38475C3.13877 1.38475 2.57688 1.6202 2.10696 2.09061C1.61633 2.57979 1.37125 3.1749 1.37125 3.87353V7.23427C1.37125 7.40472 1.30288 7.55157 1.16566 7.67579C1.03402 7.79368 0.862267 7.85673 0.685622 7.85201C0.495919 7.85201 0.332696 7.79327 0.195474 7.67579C0.133575 7.62027 0.0841486 7.55225 0.0504536 7.47623C0.0167586 7.40021 -0.00043971 7.31791 -7.30284e-06 7.23476V3.87401C-7.30284e-06 2.86098 0.362548 1.99238 1.08766 1.26679C1.83251 0.522422 2.73384 0.150236 3.79214 0.150236ZM12.0717 0.767496C12.0717 0.597533 12.1372 0.450681 12.2681 0.326459C12.4041 0.209392 12.5784 0.146638 12.7578 0.150236C12.9408 0.150236 13.1006 0.208977 13.2378 0.326459C13.3688 0.450681 13.4338 0.597533 13.4338 0.767496V4.12824C13.4338 5.14127 13.0713 6.00987 12.3461 6.73498C11.6018 7.47983 10.7 7.85201 9.64166 7.85201H9.38696C8.32866 7.85201 7.42733 7.47983 6.68247 6.73498C5.95736 6.00987 5.59481 5.14127 5.59481 4.12872V0.767977C5.59481 0.597533 5.66029 0.450681 5.79077 0.326459C5.92683 0.20928 6.10139 0.146519 6.28092 0.150236C6.47014 0.150236 6.63047 0.208977 6.76096 0.326459C6.89818 0.450681 6.96703 0.597533 6.96703 0.767496V4.12824C6.96703 4.82735 7.21162 5.42198 7.70177 5.91164C8.17218 6.38205 8.73407 6.6175 9.38696 6.6175H9.64214C10.295 6.6175 10.8603 6.38205 11.337 5.91164C11.8271 5.42198 12.0717 4.82735 12.0717 4.12872V0.767977V0.767496ZM23.4289 7.23476C23.4289 7.40472 23.3639 7.55157 23.2329 7.67579C23.1001 7.7917 22.9291 7.85446 22.7529 7.85201C22.5637 7.85201 22.4004 7.79327 22.2632 7.67579C22.2012 7.62031 22.1517 7.55231 22.1179 7.47629C22.0842 7.40027 22.0669 7.31794 22.0673 7.23476V3.87401C22.0673 3.1749 21.8217 2.58027 21.332 2.09061C20.8554 1.6202 20.2901 1.38475 19.6372 1.38475H19.382C18.7291 1.38475 18.1673 1.6202 17.6968 2.09061C17.2067 2.58027 16.9621 3.1749 16.9621 3.87353V7.23427C16.9621 7.40472 16.8933 7.55157 16.756 7.67579C16.6244 7.79368 16.4526 7.85673 16.276 7.85201C16.0868 7.85201 15.9231 7.79327 15.7863 7.67579C15.7243 7.62031 15.6748 7.55231 15.641 7.47629C15.6073 7.40027 15.59 7.31794 15.5904 7.23476V3.87401C15.5904 2.86146 15.9529 1.99238 16.6775 1.26727C17.4224 0.522421 18.3242 0.150236 19.382 0.150236H19.6372C20.695 0.150236 21.5968 0.522421 22.3412 1.26727C23.0663 1.99238 23.4294 2.86098 23.4294 3.87353V7.23427L23.4289 7.23476ZM29.3371 0.150236C30.3954 0.150236 31.2968 0.522421 32.0416 1.26727C32.7667 1.99238 33.1293 2.86098 33.1293 3.87353V4.12872C33.1293 5.14127 32.7667 6.00987 32.0416 6.73498C31.2968 7.47983 30.3954 7.85201 29.3371 7.85201H29.082C28.0241 7.85201 27.1223 7.47983 26.378 6.73498C25.6528 6.00987 25.2903 5.14127 25.2903 4.12872V3.87353C25.2903 2.86146 25.6528 1.99238 26.378 1.26727C27.1228 0.522421 28.0241 0.150236 29.0824 0.150236H29.3376H29.3371ZM29.082 1.38475C28.4291 1.38475 27.8672 1.6202 27.3968 2.09061C26.9071 2.58027 26.662 3.1749 26.662 3.87353V4.12872C26.662 4.82735 26.9071 5.42198 27.3973 5.91164C27.8672 6.38205 28.4291 6.6175 29.0824 6.6175H29.3376C29.9905 6.6175 30.5558 6.38205 31.0324 5.91164C31.5221 5.42198 31.7672 4.82735 31.7672 4.12872V3.87353C31.7672 3.1749 31.5221 2.58027 31.0324 2.09061C30.5558 1.6202 29.9905 1.38475 29.3376 1.38475H29.0824H29.082ZM40.9688 0.581644C40.9969 0.501825 41.0409 0.428543 41.0982 0.366226C41.1555 0.30391 41.2248 0.253856 41.302 0.219088C41.4714 0.140607 41.6481 0.127607 41.8311 0.179607C42.0073 0.232088 42.1378 0.333199 42.223 0.483422C42.3078 0.640385 42.3208 0.796866 42.262 0.953829L40.2335 6.54864C40.0982 6.92331 39.8522 7.24803 39.5282 7.47983C39.1936 7.72633 38.7877 7.85699 38.3721 7.85201C37.934 7.85201 37.5454 7.72779 37.206 7.47983C36.8829 7.24935 36.6397 6.92384 36.5103 6.54864L34.4919 0.953829C34.4331 0.796866 34.4461 0.640385 34.5309 0.483422C34.6156 0.333199 34.75 0.232088 34.9329 0.180088C35.1046 0.127361 35.2899 0.14111 35.452 0.218607C35.6219 0.297088 35.736 0.41794 35.7948 0.581644L37.8136 6.16683C37.8656 6.32331 37.9508 6.44127 38.0683 6.51927C38.1541 6.58936 38.2614 6.62765 38.3721 6.62765C38.4829 6.62765 38.5902 6.58936 38.676 6.51927C38.7867 6.44079 38.8719 6.32331 38.9307 6.16683L40.9683 0.581644H40.9688ZM51.4631 7.23476C51.4631 7.40472 51.3977 7.55157 51.2672 7.67579C51.1344 7.7917 50.9634 7.85446 50.7871 7.85201C50.5974 7.85201 50.4342 7.79327 50.297 7.67579C50.235 7.62031 50.1855 7.55231 50.1517 7.47629C50.1179 7.40027 50.1007 7.31794 50.101 7.23476V3.87401C50.101 3.1749 49.856 2.58027 49.3663 2.09061C48.8896 1.6202 48.3244 1.38475 47.671 1.38475H47.4158C46.7629 1.38475 46.201 1.6202 45.7306 2.09061C45.241 2.58027 44.9959 3.1749 44.9959 3.87353V4.12872C44.9959 4.82735 45.241 5.42198 45.7306 5.91164C46.201 6.38205 46.7629 6.6175 47.4158 6.6175C47.906 6.6175 48.2979 6.55875 48.5921 6.44079C48.762 6.36905 48.9349 6.35894 49.1111 6.4119C49.2878 6.47064 49.4183 6.57801 49.5035 6.73498C49.5815 6.8852 49.5883 7.04216 49.5228 7.20538C49.4578 7.36187 49.3398 7.47646 49.1703 7.5482C48.6937 7.75042 48.1087 7.85201 47.4163 7.85201C46.358 7.85201 45.4567 7.47983 44.7118 6.73498C43.9867 6.00987 43.6237 5.14127 43.6237 4.12872V3.87353C43.6237 2.86146 43.9867 1.99238 44.7118 1.26727C45.4562 0.522421 46.357 0.150236 47.4158 0.150236H47.6705C48.7288 0.150236 49.6301 0.522421 50.375 1.26727C51.1001 1.99238 51.4627 2.86098 51.4627 3.87353V7.23427L51.4631 7.23476Z" fill="white"/>
</g>
<defs>
<clipPath id="clip0_2909_12453">
<rect width="52" height="7.7037" fill="white" transform="translate(0 0.148193)"/>
</clipPath>
</defs>
</svg>
