<svg width="52" height="12" viewBox="0 0 52 12" fill="none" xmlns="http://www.w3.org/2000/svg">
<mask id="path-1-inside-1_2851_9242" fill="white">
<path fill-rule="evenodd" clip-rule="evenodd" d="M3.85586 3.50187C4.04685 3.50187 4.20867 3.56287 4.34037 3.68487C4.47888 3.81386 4.54788 3.96636 4.54788 4.14286C4.54788 4.31936 4.47888 4.46835 4.34037 4.59085C4.27594 4.65426 4.19998 4.70396 4.11683 4.73708C4.03368 4.7702 3.94499 4.78609 3.85586 4.78385C3.19639 4.78385 2.62926 5.02834 2.15495 5.51684C1.65974 6.02483 1.41238 6.64282 1.41238 7.36831V10.8583C1.41238 11.0353 1.34337 11.1877 1.20487 11.3167C1.072 11.4392 0.898648 11.5046 0.720355 11.4997C0.528881 11.4997 0.364136 11.4387 0.225634 11.3167C0.163157 11.2591 0.113269 11.1885 0.07926 11.1095C0.0452506 11.0306 0.0278919 10.9451 0.0283283 10.8588V7.36881C0.0283283 6.31682 0.394267 5.41484 1.12614 4.66135C1.87794 3.88836 2.78769 3.50187 3.85586 3.50187ZM12.2127 4.14286C12.2127 3.96636 12.2788 3.81386 12.4109 3.68487C12.5481 3.5633 12.7241 3.49813 12.9052 3.50187C13.0898 3.50187 13.2512 3.56287 13.3897 3.68487C13.5219 3.81386 13.5875 3.96636 13.5875 4.14286V7.6328C13.5875 8.68479 13.2215 9.58677 12.4897 10.3398C11.7384 11.1133 10.8281 11.4997 9.75995 11.4997H9.50287C8.4347 11.4997 7.52496 11.1133 6.77316 10.3398C6.04128 9.58677 5.67534 8.68479 5.67534 7.6333V4.14336C5.67534 3.96636 5.74144 3.81386 5.87313 3.68487C6.01046 3.56318 6.18666 3.49801 6.36786 3.50187C6.55884 3.50187 6.72067 3.56287 6.85237 3.68487C6.99087 3.81386 7.06037 3.96636 7.06037 4.14286V7.6328C7.06037 8.35879 7.30724 8.97628 7.80196 9.48478C8.27676 9.97327 8.84389 10.2178 9.50287 10.2178H9.76044C10.4194 10.2178 10.99 9.97327 11.4711 9.48478C11.9658 8.97628 12.2127 8.35879 12.2127 7.6333V4.14336V4.14286ZM23.6758 10.8588C23.6758 11.0353 23.6102 11.1877 23.478 11.3167C23.344 11.4371 23.1714 11.5023 22.9935 11.4997C22.8025 11.4997 22.6378 11.4387 22.4993 11.3167C22.4367 11.2591 22.3867 11.1885 22.3526 11.1096C22.3185 11.0306 22.3011 10.9451 22.3015 10.8588V7.36881C22.3015 6.64282 22.0536 6.02533 21.5594 5.51684C21.0783 5.02834 20.5077 4.78385 19.8488 4.78385H19.5912C18.9322 4.78385 18.3651 5.02834 17.8903 5.51684C17.3956 6.02533 17.1487 6.64282 17.1487 7.36831V10.8583C17.1487 11.0353 17.0792 11.1877 16.9407 11.3167C16.8078 11.4392 16.6345 11.5046 16.4562 11.4997C16.2652 11.4997 16.1 11.4387 15.9619 11.3167C15.8994 11.2591 15.8494 11.1885 15.8153 11.1096C15.7812 11.0306 15.7638 10.9451 15.7642 10.8588V7.36881C15.7642 6.31732 16.1301 5.41484 16.8615 4.66185C17.6133 3.88836 18.5235 3.50187 19.5912 3.50187H19.8488C20.9165 3.50187 21.8267 3.88836 22.578 4.66185C23.3099 5.41484 23.6763 6.31682 23.6763 7.36831V10.8583L23.6758 10.8588ZM29.6392 3.50187C30.7074 3.50187 31.6171 3.88836 32.3689 4.66185C33.1008 5.41484 33.4667 6.31682 33.4667 7.36831V7.6333C33.4667 8.68479 33.1008 9.58677 32.3689 10.3398C31.6171 11.1133 30.7074 11.4997 29.6392 11.4997H29.3816C28.3139 11.4997 27.4037 11.1133 26.6524 10.3398C25.9205 9.58677 25.5546 8.68479 25.5546 7.6333V7.36831C25.5546 6.31732 25.9205 5.41484 26.6524 4.66185C27.4042 3.88836 28.3139 3.50187 29.3821 3.50187H29.6397H29.6392ZM29.3816 4.78385C28.7226 4.78385 28.1555 5.02834 27.6807 5.51684C27.1865 6.02533 26.9391 6.64282 26.9391 7.36831V7.6333C26.9391 8.35879 27.1865 8.97628 27.6812 9.48478C28.1555 9.97327 28.7226 10.2178 29.3821 10.2178H29.6397C30.2987 10.2178 30.8692 9.97327 31.3503 9.48478C31.8445 8.97628 32.0919 8.35879 32.0919 7.6333V7.36831C32.0919 6.64282 31.8445 6.02533 31.3503 5.51684C30.8692 5.02834 30.2987 4.78385 29.6397 4.78385H29.3821H29.3816ZM41.3793 3.94986C41.4077 3.86697 41.4522 3.79087 41.51 3.72616C41.5678 3.66145 41.6378 3.60947 41.7156 3.57337C41.8867 3.49187 42.0651 3.47837 42.2497 3.53237C42.4276 3.58687 42.5593 3.69187 42.6453 3.84786C42.7308 4.01086 42.744 4.17336 42.6847 4.33636L40.6373 10.1463C40.5006 10.5353 40.2523 10.8725 39.9253 11.1133C39.5876 11.3692 39.1779 11.5049 38.7585 11.4997C38.3163 11.4997 37.9241 11.3707 37.5815 11.1133C37.2553 10.8739 37.0099 10.5359 36.8792 10.1463L34.842 4.33636C34.7827 4.17336 34.7959 4.01086 34.8814 3.84786C34.9669 3.69187 35.1025 3.58687 35.2872 3.53287C35.4605 3.47811 35.6475 3.49239 35.8111 3.57287C35.9826 3.65437 36.0978 3.77986 36.1571 3.94986L38.1948 9.74977C38.2472 9.91227 38.3333 10.0348 38.4518 10.1158C38.5384 10.1885 38.6467 10.2283 38.7585 10.2283C38.8703 10.2283 38.9786 10.1885 39.0651 10.1158C39.1769 10.0343 39.2629 9.91227 39.3222 9.74977L41.3789 3.94986H41.3793ZM51.9716 10.8588C51.9716 11.0353 51.9055 11.1877 51.7738 11.3167C51.6398 11.4371 51.4672 11.5023 51.2893 11.4997C51.0979 11.4997 50.9331 11.4387 50.7946 11.3167C50.732 11.2591 50.6821 11.1885 50.648 11.1096C50.6139 11.0306 50.5964 10.9451 50.5968 10.8588V7.36881C50.5968 6.64282 50.3494 6.02533 49.8552 5.51684C49.3741 5.02834 48.8036 4.78385 48.1441 4.78385H47.8865C47.2276 4.78385 46.6604 5.02834 46.1856 5.51684C45.6914 6.02533 45.444 6.64282 45.444 7.36831V7.6333C45.444 8.35879 45.6914 8.97628 46.1856 9.48478C46.6604 9.97327 47.2276 10.2178 47.8865 10.2178C48.3813 10.2178 48.7768 10.1568 49.0738 10.0343C49.2453 9.95977 49.4198 9.94927 49.5976 10.0043C49.776 10.0653 49.9077 10.1768 49.9937 10.3398C50.0724 10.4958 50.0793 10.6588 50.0132 10.8283C49.9476 10.9908 49.8285 11.1098 49.6574 11.1842C49.1763 11.3942 48.5859 11.4997 47.887 11.4997C46.8189 11.4997 45.9091 11.1133 45.1573 10.3398C44.4254 9.58677 44.059 8.68479 44.059 7.6333V7.36831C44.059 6.31732 44.4254 5.41484 45.1573 4.66185C45.9086 3.88836 46.8179 3.50187 47.8865 3.50187H48.1436C49.2118 3.50187 50.1215 3.88836 50.8733 4.66185C51.6052 5.41484 51.9711 6.31682 51.9711 7.36831V10.8583L51.9716 10.8588Z"/>
</mask>
<path fill-rule="evenodd" clip-rule="evenodd" d="M3.85586 3.50187C4.04685 3.50187 4.20867 3.56287 4.34037 3.68487C4.47888 3.81386 4.54788 3.96636 4.54788 4.14286C4.54788 4.31936 4.47888 4.46835 4.34037 4.59085C4.27594 4.65426 4.19998 4.70396 4.11683 4.73708C4.03368 4.7702 3.94499 4.78609 3.85586 4.78385C3.19639 4.78385 2.62926 5.02834 2.15495 5.51684C1.65974 6.02483 1.41238 6.64282 1.41238 7.36831V10.8583C1.41238 11.0353 1.34337 11.1877 1.20487 11.3167C1.072 11.4392 0.898648 11.5046 0.720355 11.4997C0.528881 11.4997 0.364136 11.4387 0.225634 11.3167C0.163157 11.2591 0.113269 11.1885 0.07926 11.1095C0.0452506 11.0306 0.0278919 10.9451 0.0283283 10.8588V7.36881C0.0283283 6.31682 0.394267 5.41484 1.12614 4.66135C1.87794 3.88836 2.78769 3.50187 3.85586 3.50187ZM12.2127 4.14286C12.2127 3.96636 12.2788 3.81386 12.4109 3.68487C12.5481 3.5633 12.7241 3.49813 12.9052 3.50187C13.0898 3.50187 13.2512 3.56287 13.3897 3.68487C13.5219 3.81386 13.5875 3.96636 13.5875 4.14286V7.6328C13.5875 8.68479 13.2215 9.58677 12.4897 10.3398C11.7384 11.1133 10.8281 11.4997 9.75995 11.4997H9.50287C8.4347 11.4997 7.52496 11.1133 6.77316 10.3398C6.04128 9.58677 5.67534 8.68479 5.67534 7.6333V4.14336C5.67534 3.96636 5.74144 3.81386 5.87313 3.68487C6.01046 3.56318 6.18666 3.49801 6.36786 3.50187C6.55884 3.50187 6.72067 3.56287 6.85237 3.68487C6.99087 3.81386 7.06037 3.96636 7.06037 4.14286V7.6328C7.06037 8.35879 7.30724 8.97628 7.80196 9.48478C8.27676 9.97327 8.84389 10.2178 9.50287 10.2178H9.76044C10.4194 10.2178 10.99 9.97327 11.4711 9.48478C11.9658 8.97628 12.2127 8.35879 12.2127 7.6333V4.14336V4.14286ZM23.6758 10.8588C23.6758 11.0353 23.6102 11.1877 23.478 11.3167C23.344 11.4371 23.1714 11.5023 22.9935 11.4997C22.8025 11.4997 22.6378 11.4387 22.4993 11.3167C22.4367 11.2591 22.3867 11.1885 22.3526 11.1096C22.3185 11.0306 22.3011 10.9451 22.3015 10.8588V7.36881C22.3015 6.64282 22.0536 6.02533 21.5594 5.51684C21.0783 5.02834 20.5077 4.78385 19.8488 4.78385H19.5912C18.9322 4.78385 18.3651 5.02834 17.8903 5.51684C17.3956 6.02533 17.1487 6.64282 17.1487 7.36831V10.8583C17.1487 11.0353 17.0792 11.1877 16.9407 11.3167C16.8078 11.4392 16.6345 11.5046 16.4562 11.4997C16.2652 11.4997 16.1 11.4387 15.9619 11.3167C15.8994 11.2591 15.8494 11.1885 15.8153 11.1096C15.7812 11.0306 15.7638 10.9451 15.7642 10.8588V7.36881C15.7642 6.31732 16.1301 5.41484 16.8615 4.66185C17.6133 3.88836 18.5235 3.50187 19.5912 3.50187H19.8488C20.9165 3.50187 21.8267 3.88836 22.578 4.66185C23.3099 5.41484 23.6763 6.31682 23.6763 7.36831V10.8583L23.6758 10.8588ZM29.6392 3.50187C30.7074 3.50187 31.6171 3.88836 32.3689 4.66185C33.1008 5.41484 33.4667 6.31682 33.4667 7.36831V7.6333C33.4667 8.68479 33.1008 9.58677 32.3689 10.3398C31.6171 11.1133 30.7074 11.4997 29.6392 11.4997H29.3816C28.3139 11.4997 27.4037 11.1133 26.6524 10.3398C25.9205 9.58677 25.5546 8.68479 25.5546 7.6333V7.36831C25.5546 6.31732 25.9205 5.41484 26.6524 4.66185C27.4042 3.88836 28.3139 3.50187 29.3821 3.50187H29.6397H29.6392ZM29.3816 4.78385C28.7226 4.78385 28.1555 5.02834 27.6807 5.51684C27.1865 6.02533 26.9391 6.64282 26.9391 7.36831V7.6333C26.9391 8.35879 27.1865 8.97628 27.6812 9.48478C28.1555 9.97327 28.7226 10.2178 29.3821 10.2178H29.6397C30.2987 10.2178 30.8692 9.97327 31.3503 9.48478C31.8445 8.97628 32.0919 8.35879 32.0919 7.6333V7.36831C32.0919 6.64282 31.8445 6.02533 31.3503 5.51684C30.8692 5.02834 30.2987 4.78385 29.6397 4.78385H29.3821H29.3816ZM41.3793 3.94986C41.4077 3.86697 41.4522 3.79087 41.51 3.72616C41.5678 3.66145 41.6378 3.60947 41.7156 3.57337C41.8867 3.49187 42.0651 3.47837 42.2497 3.53237C42.4276 3.58687 42.5593 3.69187 42.6453 3.84786C42.7308 4.01086 42.744 4.17336 42.6847 4.33636L40.6373 10.1463C40.5006 10.5353 40.2523 10.8725 39.9253 11.1133C39.5876 11.3692 39.1779 11.5049 38.7585 11.4997C38.3163 11.4997 37.9241 11.3707 37.5815 11.1133C37.2553 10.8739 37.0099 10.5359 36.8792 10.1463L34.842 4.33636C34.7827 4.17336 34.7959 4.01086 34.8814 3.84786C34.9669 3.69187 35.1025 3.58687 35.2872 3.53287C35.4605 3.47811 35.6475 3.49239 35.8111 3.57287C35.9826 3.65437 36.0978 3.77986 36.1571 3.94986L38.1948 9.74977C38.2472 9.91227 38.3333 10.0348 38.4518 10.1158C38.5384 10.1885 38.6467 10.2283 38.7585 10.2283C38.8703 10.2283 38.9786 10.1885 39.0651 10.1158C39.1769 10.0343 39.2629 9.91227 39.3222 9.74977L41.3789 3.94986H41.3793ZM51.9716 10.8588C51.9716 11.0353 51.9055 11.1877 51.7738 11.3167C51.6398 11.4371 51.4672 11.5023 51.2893 11.4997C51.0979 11.4997 50.9331 11.4387 50.7946 11.3167C50.732 11.2591 50.6821 11.1885 50.648 11.1096C50.6139 11.0306 50.5964 10.9451 50.5968 10.8588V7.36881C50.5968 6.64282 50.3494 6.02533 49.8552 5.51684C49.3741 5.02834 48.8036 4.78385 48.1441 4.78385H47.8865C47.2276 4.78385 46.6604 5.02834 46.1856 5.51684C45.6914 6.02533 45.444 6.64282 45.444 7.36831V7.6333C45.444 8.35879 45.6914 8.97628 46.1856 9.48478C46.6604 9.97327 47.2276 10.2178 47.8865 10.2178C48.3813 10.2178 48.7768 10.1568 49.0738 10.0343C49.2453 9.95977 49.4198 9.94927 49.5976 10.0043C49.776 10.0653 49.9077 10.1768 49.9937 10.3398C50.0724 10.4958 50.0793 10.6588 50.0132 10.8283C49.9476 10.9908 49.8285 11.1098 49.6574 11.1842C49.1763 11.3942 48.5859 11.4997 47.887 11.4997C46.8189 11.4997 45.9091 11.1133 45.1573 10.3398C44.4254 9.58677 44.059 8.68479 44.059 7.6333V7.36831C44.059 6.31732 44.4254 5.41484 45.1573 4.66185C45.9086 3.88836 46.8179 3.50187 47.8865 3.50187H48.1436C49.2118 3.50187 50.1215 3.88836 50.8733 4.66185C51.6052 5.41484 51.9711 6.31682 51.9711 7.36831V10.8583L51.9716 10.8588Z" fill="#D5D5D5" stroke="#D5D5D5" stroke-width="2" mask="url(#path-1-inside-1_2851_9242)"/>
</svg>
