<svg width="20" height="20" viewBox="0 0 20 20" fill="none" xmlns="http://www.w3.org/2000/svg">
<rect width="20" height="20" rx="10" fill="#04B769"/>
<path d="M14.9706 6.45202C14.9018 6.38259 14.8198 6.32748 14.7296 6.28988C14.6393 6.25227 14.5425 6.23291 14.4447 6.23291C14.3469 6.23291 14.2501 6.25227 14.1598 6.28988C14.0696 6.32748 13.9876 6.38259 13.9188 6.45202L8.40025 11.9779L6.08173 9.65202C6.01024 9.58295 5.92584 9.52865 5.83335 9.4922C5.74086 9.45575 5.64211 9.43788 5.54271 9.4396C5.44332 9.44132 5.34524 9.4626 5.25407 9.50222C5.1629 9.54185 5.08043 9.59904 5.01136 9.67054C4.9423 9.74204 4.88799 9.82644 4.85154 9.91892C4.8151 10.0114 4.79722 10.1102 4.79894 10.2096C4.80066 10.309 4.82194 10.407 4.86157 10.4982C4.90119 10.5894 4.95838 10.6718 5.02988 10.7409L7.87433 13.5854C7.94319 13.6548 8.02511 13.7099 8.11538 13.7475C8.20565 13.7851 8.30247 13.8045 8.40025 13.8045C8.49804 13.8045 8.59486 13.7851 8.68512 13.7475C8.77539 13.7099 8.85732 13.6548 8.92618 13.5854L14.9706 7.54091C15.0458 7.47154 15.1058 7.38736 15.1469 7.29365C15.1879 7.19995 15.2091 7.09876 15.2091 6.99646C15.2091 6.89417 15.1879 6.79298 15.1469 6.69927C15.1058 6.60557 15.0458 6.52138 14.9706 6.45202Z" fill="white"/>
</svg>
