<svg width="144" height="72" viewBox="0 0 144 72" fill="none" xmlns="http://www.w3.org/2000/svg">
<path fill-rule="evenodd" clip-rule="evenodd" d="M51.1651 5.53052C53.0835 2.86835 54.5498 1.43233 56.1453 0.654356C56.8827 0.294355 57.5847 0 57.7045 0C57.8241 0 57.6787 0.444972 57.3808 0.988678C57.0832 1.53265 56.8423 2.21744 56.8454 2.51074C56.8521 3.12379 57.8075 5.29413 58.0706 5.29413C58.1671 5.29413 59.177 4.56011 60.3148 3.66328C62.7579 1.73674 64.0241 1.13903 66.1886 0.890208L67.7881 0.705973L66.9109 1.56468C66.386 2.07821 66.0339 2.69074 66.0339 3.08991C66.0339 3.85968 66.8253 5.29413 67.2501 5.29413C67.4084 5.29413 68.4758 4.74805 69.6213 4.0807C72.0317 2.67671 73.8423 2.31274 76.5641 2.68545C77.5217 2.81647 78.3536 2.97108 78.4125 3.02876C78.4715 3.08647 78.2553 3.2723 77.9319 3.44172C77.6084 3.61086 76.8718 4.16728 76.2946 4.67762C75.3055 5.55248 75.2547 5.67161 75.4072 6.76087L75.5689 7.91631L74.219 7.41442C67.1681 4.79172 59.2688 4.75545 50.3902 7.30483C49.8375 7.46367 49.938 7.23311 51.1651 5.53052ZM42.8936 9.43123C43.7343 6.76379 44.6653 5.28248 46.2186 4.14109C46.9286 3.61933 47.5446 3.18892 47.5867 3.18441C47.6292 3.18018 47.5831 3.77314 47.484 4.5024C47.3108 5.78252 47.3394 5.86059 48.31 6.75664L49.3153 7.68494L47.8716 8.31019C46.5174 8.89653 44.4777 10.0059 42.939 10.993L42.2652 11.425L42.8936 9.43123ZM76.0655 8.07991L78.1484 7.50523C81.4692 6.58881 83.8385 6.76909 85.907 8.09606C86.7388 8.62945 86.4129 8.98945 85.0915 8.99607C84.6408 8.99818 83.9993 9.18745 83.665 9.41666C83.1232 9.78804 83.0768 9.97758 83.2377 11.1645L83.4182 12.4957L81.7781 11.3138C80.8758 10.6637 79.2214 9.67026 78.1015 9.10591L76.0655 8.07991ZM34.0461 25.1471C38.1801 16.3482 46.2369 9.94064 55.9827 8.19425C56.677 8.06985 59.1922 8.01054 61.572 8.06218C65.1451 8.13998 66.3517 8.2742 68.4995 8.83299C78.2954 11.3813 86.1891 17.2433 90.1109 24.8824C90.4472 25.5376 91.0688 27.0763 91.4919 28.3019C93.9267 35.353 93.8232 42.4754 91.1634 50.9111L90.3428 53.513L89.7144 53.1098C89.101 52.7163 89.0817 52.7302 88.9209 53.6844C88.8298 54.222 88.7512 55.3767 88.7459 56.2503C88.7325 58.4507 88.3189 60.0036 87.3534 61.478C86.4157 62.9097 86.1869 63.0164 86.1061 62.0597C86.0749 61.688 85.9286 61.1639 85.7815 60.8948C85.5058 60.3903 83.1607 59.454 82.9766 59.7753C82.919 59.8747 82.5962 60.7898 82.2581 61.8088C81.9205 62.8281 81.4062 64.1256 81.1152 64.6922C80.5434 65.8068 78.533 68.0283 77.3496 68.8531L76.6146 69.3653L76.8678 68.5008C77.0071 68.0251 77.1214 67.1431 77.1214 66.5405C77.1214 65.6104 76.9855 65.3438 76.2191 64.7718L75.3168 64.0984L73.9051 66.4669C72.2597 69.2284 71.1261 70.4222 69.279 71.3385C68.5452 71.7023 67.8759 72.0002 67.7914 72.0002C67.7072 72.0002 67.7159 71.4233 67.8113 70.7188C67.9397 69.7726 67.8661 69.2117 67.5305 68.5766C67.2805 68.1028 67.1151 67.6879 67.1634 67.6538C67.2113 67.6194 68.5287 66.9019 70.0904 66.0588C83.1032 59.0343 89.2602 49.6952 88.6723 37.8737C88.0701 25.7694 81.1237 17.0306 69.3871 13.6141C67.4063 13.0376 66.2503 12.8888 62.852 12.7742C56.949 12.5749 52.7668 13.3632 48.4565 15.4877C43.9261 17.7207 40.4575 21.136 38.1765 25.1471H34.0461ZM34.5298 50.2944C35.8987 52.7874 37.6599 55.0595 39.7637 56.9661C44.6729 61.4151 50.5155 63.3368 59.1383 63.3385C67.2358 63.3399 73.7535 61.0298 78.0677 56.6295L79.4199 55.2503L78.2031 55.9714C74.7 58.047 70.2756 59.7148 66.0831 60.5403C62.5877 61.2287 56.39 61.1592 53.2222 60.396C48.0777 59.1567 43.5038 56.3611 40.4643 52.5986C39.8606 51.8514 39.3087 51.0819 38.8076 50.2944H34.5298ZM36.132 14.9776C36.3367 12.675 36.75 11.4827 37.8213 10.1081L38.527 9.20226L38.8819 10.0295C39.0776 10.4845 39.6742 11.1087 40.2076 11.4171C40.7413 11.7252 41.1422 12.0518 41.0987 12.1432C41.0552 12.2342 39.8783 13.3809 38.483 14.6913L35.9462 17.0736L36.132 14.9776ZM89.1426 18.3296C88.8793 17.9299 87.6184 16.55 86.3405 15.2633L84.017 12.9233L85.3691 13.1006C88.9767 13.5734 91.0707 14.3977 93.0764 16.1344C93.9945 16.9293 94.0026 16.9528 93.3468 16.9182C91.5084 16.8213 91.1884 16.9388 90.404 17.9987L89.6213 19.0565L89.1426 18.3296ZM30.8776 22.7084C29.9651 20.6399 29.8989 19.4085 30.6123 17.7852C31.1997 16.4491 31.6901 16.0047 31.6901 16.8088C31.6901 17.4868 32.6387 18.1763 33.8269 18.3622L34.9642 18.5403L34.394 19.3244C34.0801 19.7556 33.2993 21.0082 32.6589 22.108L31.495 24.1076L30.8776 22.7084ZM94.0228 26.9471L92.3824 23.6625C91.4231 21.7413 90.9475 20.8573 91.1609 20.6487C91.3555 20.4587 92.1221 20.8295 93.616 21.4876C95.6138 22.3674 96.5989 23.1808 97.7098 24.8681C98.6749 26.3338 98.6804 26.5392 97.741 26.0596C96.6301 25.4923 95.5026 25.5863 94.7137 26.3119L94.0228 26.9471ZM95.7805 35.2292C95.7805 34.4658 95.1264 30.8136 94.821 29.8715C94.6073 29.2125 94.826 29.2541 96.0015 30.0952C98.3794 31.7975 99.0169 32.6787 99.5501 35.0009L99.7778 35.9929L99.0947 35.4673C98.2284 34.8 97.6164 34.8011 96.9975 35.4709C96.2875 36.2386 95.7805 36.138 95.7805 35.2292ZM95.4698 43.6964C95.6407 42.6832 95.7805 41.3707 95.7805 40.7798C95.7805 40.1893 95.8815 39.7059 96.0054 39.7059C96.408 39.7059 96.8898 41.6413 97.0536 43.9163L97.214 46.1411L96.3142 45.9649C95.8192 45.868 95.3569 45.7325 95.2867 45.6638C95.2165 45.5948 95.2987 44.7096 95.4698 43.6964ZM91.4287 54.3577L92.5906 52.0663C93.2297 50.8058 93.8002 49.7722 93.8588 49.7697C94.0891 49.7593 93.6328 53.6586 93.2974 54.5726L92.9411 55.5427L92.1851 54.9501L91.4287 54.3577ZM31.7016 55.5335C32.4236 55.6375 32.5635 55.549 32.8487 54.81L33.1732 53.968L33.664 54.5797C33.9338 54.9161 34.7563 55.8683 35.4914 56.6957C36.2267 57.5232 36.8284 58.26 36.8284 58.3334C36.8284 58.5089 35.0514 58.2592 33.8535 57.9156C33.0079 57.673 30.8791 56.0019 30.8791 55.5806C30.8791 55.4896 31.249 55.4685 31.7016 55.5335ZM38.6512 63.0002C39.3343 63.0002 39.8028 62.4915 39.8028 61.7501C39.8028 61.179 39.9611 61.2422 42.0339 62.6421C43.2607 63.4706 44.3804 64.2476 44.5213 64.3682C44.8404 64.6413 42.9923 64.43 40.4167 63.8988C38.5698 63.5181 37.5523 63.0002 38.6512 63.0002ZM47.4189 68.4636C48.203 67.9394 48.3111 67.7335 48.2423 66.8884C48.1639 65.9241 48.169 65.9189 48.9183 66.205C49.3338 66.3635 50.7685 66.7694 52.1069 67.1075L54.541 67.7216L52.9184 68.4593C51.2488 69.218 48.6069 69.5805 47.2229 69.2403L46.5165 69.0666L47.4189 68.4636ZM60.2601 67.7761C61.7254 67.7481 63.4109 67.6282 64.0059 67.5106C64.6007 67.3927 65.1481 67.2867 65.2226 67.2743C65.5589 67.2196 64.1594 68.1304 63.0592 68.6824C62.0442 69.1919 57.3181 70.9413 56.9572 70.9413C56.8968 70.9413 57.0818 70.5638 57.3685 70.103C57.6999 69.5695 57.8361 69.0025 57.7427 68.5458L57.5959 67.8278L60.2601 67.7761Z" fill="white"/>
<path d="M5.66382 45.0309C4.54004 45.0309 3.55112 44.8911 2.69706 44.6119C1.84299 44.3325 1.17621 43.9427 0.696739 43.4429C0.232246 42.9283 0 42.3329 0 41.6565C0 40.9508 0.209768 40.3995 0.629316 40.0025C1.04885 39.5909 1.64071 39.3849 2.40487 39.3849C2.35992 39.6643 2.33745 39.9289 2.33745 40.1789C2.33745 41.1199 2.65211 41.8405 3.28141 42.3403C3.91073 42.8401 4.82472 43.0901 6.02343 43.0901C7.38693 43.0901 8.45077 42.8401 9.21494 42.3403C9.97911 41.8405 10.3612 41.1419 10.3612 40.2451C10.3612 39.7011 10.084 39.2673 9.5296 38.9439C8.97522 38.6056 7.99377 38.2748 6.58531 37.9514C4.81725 37.5544 3.54362 37.0618 2.76448 36.4738C2.00032 35.8709 1.61823 35.0918 1.61823 34.136C1.61823 33.1656 1.89543 32.3054 2.44983 31.5556C3.00421 30.8058 3.78338 30.225 4.78727 29.8134C5.80617 29.4018 6.96739 29.1958 8.27097 29.1958C9.28987 29.1958 10.1964 29.3282 10.9906 29.5928C11.7846 29.8428 12.399 30.2028 12.8335 30.6734C13.2831 31.144 13.5077 31.688 13.5077 32.3054C13.5077 32.9376 13.313 33.4228 12.9234 33.761C12.5488 34.0844 11.9944 34.2538 11.2602 34.2683C11.3051 33.1802 11.0654 32.3862 10.541 31.8864C10.0166 31.3866 9.16248 31.1366 7.97878 31.1366C6.75014 31.1366 5.79117 31.3718 5.10192 31.8424C4.41269 32.313 4.06806 32.9597 4.06806 33.7832C4.06806 34.3124 4.30779 34.7389 4.78727 35.0623C5.28173 35.371 6.15078 35.6652 7.39443 35.9445C9.32732 36.371 10.7058 36.8853 11.5299 37.4883C12.3539 38.0912 12.7661 38.8851 12.7661 39.8701C12.7661 40.8993 12.4739 41.8035 11.8896 42.5829C11.3051 43.3621 10.4736 43.9649 9.39474 44.3913C8.3309 44.8177 7.08727 45.0309 5.66382 45.0309ZM20.4424 31.4674H14.9807C15.0857 30.7912 15.3329 30.2764 15.7225 29.9236C16.127 29.5708 16.6589 29.3942 17.3182 29.3942H28.6683C28.4135 30.7762 27.6344 31.4674 26.3308 31.4674H22.8471L20.7569 43.1563C20.6371 43.7591 20.3449 44.2223 19.8804 44.5457C19.4159 44.8691 18.7941 45.0309 18.015 45.0309L20.4424 31.4674ZM26.8435 45.0309C26.3939 44.9573 26.0418 44.7883 25.7871 44.5237C25.5323 44.2589 25.405 43.9281 25.405 43.5311C25.405 43.1343 25.5474 42.7077 25.8321 42.2521L33.3614 29.9678C33.6609 29.453 34.0956 29.1958 34.665 29.1958C35.2045 29.1958 35.5415 29.453 35.6764 29.9678L38.8006 42.2521C38.8604 42.4431 38.8905 42.6565 38.8905 42.8917C38.8905 43.4355 38.7106 43.9061 38.351 44.3031C37.9914 44.7001 37.5118 44.9427 36.9125 45.0309L35.9012 40.5539H29.5631L26.8435 45.0309ZM35.519 38.5248L33.9458 31.71L33.7211 31.7982L33.9683 32.923L30.6869 38.5248H35.519ZM43.4673 31.1586C43.587 30.5558 43.8792 30.078 44.3438 29.7252C44.8083 29.3722 45.385 29.1958 46.0744 29.1958L52.1428 41.7447L52.3451 41.6125L51.8281 40.3995L53.851 29.1958C54.5252 29.1958 55.0346 29.3206 55.3792 29.5708C55.7389 29.8208 55.9187 30.1808 55.9187 30.6514C55.9187 30.725 55.9035 30.8645 55.8737 31.0704L53.6936 43.2665C53.5885 43.7663 53.3188 44.1853 52.8846 44.5237C52.4499 44.8619 51.9554 45.0309 51.4011 45.0309L45.1304 32.0628L44.9281 32.2172L45.4451 33.4302L43.7145 43.1563C43.6095 43.7737 43.3248 44.2443 42.8604 44.5677C42.3958 44.8765 41.7664 45.0309 40.9725 45.0309L43.4673 31.1586ZM58.8755 31.0924C58.9807 30.4896 59.2729 30.0264 59.7522 29.703C60.2467 29.3648 60.8759 29.1958 61.6401 29.1958L60.2915 36.562L69.5739 29.1958C69.7987 29.3868 69.9861 29.6074 70.1358 29.8574C70.2858 30.0926 70.3606 30.306 70.3606 30.497C70.3606 30.8794 70.031 31.335 69.3716 31.8644L63.5281 36.4958L68.7199 44.3473C68.2255 44.8029 67.7161 45.0309 67.1915 45.0309C66.5325 45.0309 66.0677 44.8029 65.7981 44.3473L61.5726 37.9735L59.7971 39.3849L59.1003 43.2225C58.9807 43.8399 58.7034 44.2957 58.2688 44.5899C57.8344 44.8839 57.2051 45.0309 56.3809 45.0309L58.8755 31.0924ZM75.7046 45.0309C74.6258 45.0309 73.6594 44.8325 72.8053 44.4355C71.9513 44.0385 71.277 43.4871 70.7826 42.7813C70.3033 42.0755 70.0633 41.2817 70.0633 40.3995C70.0633 40.1202 70.0858 39.8407 70.1307 39.5614L71.0297 34.6212C71.2248 33.5185 71.6743 32.5556 72.3783 31.732C73.0975 30.9086 73.9893 30.284 75.0529 29.8574C76.1317 29.4164 77.3004 29.1958 78.5591 29.1958C79.6379 29.1958 80.6043 29.3942 81.4585 29.7912C82.3125 30.1882 82.9794 30.7396 83.4586 31.4454C83.9531 32.1364 84.2004 32.9156 84.2004 33.7832C84.2004 34.0478 84.1779 34.327 84.133 34.6212L83.2564 39.5614C83.0617 40.6495 82.6198 41.6051 81.9304 42.4285C81.2562 43.2519 80.3795 43.8915 79.3007 44.3473C78.2371 44.8029 77.0383 45.0309 75.7046 45.0309ZM76.0643 42.9577C77.3679 42.9577 78.4467 42.6491 79.3007 42.0315C80.1549 41.4139 80.6793 40.5833 80.874 39.5393L81.7506 34.6653C81.7955 34.4153 81.818 34.1876 81.818 33.9816C81.818 33.129 81.5033 32.4598 80.874 31.9746C80.2448 31.4894 79.3457 31.2468 78.1769 31.2468C76.8886 31.2468 75.817 31.563 74.963 32.1952C74.1089 32.8128 73.592 33.6362 73.4121 34.6653L72.5131 39.5393C72.4682 39.7745 72.4457 39.9951 72.4457 40.2009C72.4457 41.0537 72.7531 41.7301 73.3672 42.2299C73.9965 42.7151 74.8955 42.9577 76.0643 42.9577Z" fill="white"/>
<path d="M100.923 44.8325C100.594 44.8325 100.324 44.7221 100.114 44.5015C99.9197 44.2811 99.8446 44.0239 99.8896 43.7297L102.271 30.497C102.331 30.1882 102.496 29.931 102.765 29.7252C103.05 29.5046 103.364 29.3942 103.709 29.3942H109.887C111.056 29.3942 111.969 29.6884 112.628 30.2764C113.287 30.8645 113.617 31.6805 113.617 32.7246C113.617 33.6067 113.37 34.4373 112.875 35.2167C112.396 35.996 111.767 36.5694 110.988 36.9369L110.966 36.981C111.64 37.2162 112.149 37.5619 112.494 38.0176C112.853 38.4733 113.033 39.0321 113.033 39.6937C113.033 40.6054 112.786 41.4581 112.291 42.2521C111.812 43.0459 111.153 43.6781 110.314 44.1487C109.49 44.6045 108.592 44.8325 107.618 44.8325H100.923ZM108.629 36.0988C109.064 36.0988 109.475 35.9665 109.865 35.7019C110.269 35.4226 110.591 35.0548 110.831 34.5992C111.07 34.1286 111.19 33.6362 111.19 33.1215C111.19 32.5776 111.041 32.1586 110.741 31.8644C110.441 31.5702 110.015 31.4234 109.46 31.4234H104.473L103.642 36.0988H108.629ZM107.865 42.8033C108.674 42.8033 109.341 42.5241 109.865 41.9653C110.389 41.4065 110.651 40.7007 110.651 39.8481C110.651 39.2893 110.479 38.8631 110.134 38.5689C109.805 38.2602 109.333 38.1058 108.719 38.1058H103.282L102.451 42.8033H107.865ZM120.474 45.0309C119.395 45.0309 118.429 44.8325 117.575 44.4355C116.722 44.0385 116.048 43.4871 115.553 42.7813C115.074 42.0755 114.835 41.2817 114.835 40.3995C114.835 40.1202 114.857 39.8407 114.902 39.5614L115.801 34.6212C115.995 33.5185 116.445 32.5556 117.149 31.732C117.868 30.9086 118.759 30.284 119.822 29.8574C120.901 29.4164 122.069 29.1958 123.327 29.1958C124.405 29.1958 125.371 29.3942 126.226 29.7912C127.079 30.1882 127.745 30.7396 128.224 31.4454C128.719 32.1364 128.967 32.9156 128.967 33.7832C128.967 34.0478 128.944 34.327 128.898 34.6212L128.022 39.5614C127.827 40.6495 127.386 41.6051 126.697 42.4285C126.023 43.2519 125.147 43.8915 124.068 44.3473C123.005 44.8029 121.807 45.0309 120.474 45.0309ZM120.833 42.9577C122.136 42.9577 123.215 42.6491 124.068 42.0315C124.922 41.4139 125.447 40.5833 125.642 39.5393L126.518 34.6653C126.562 34.4153 126.585 34.1876 126.585 33.9816C126.585 33.129 126.27 32.4598 125.642 31.9746C125.012 31.4894 124.113 31.2468 122.945 31.2468C121.657 31.2468 120.586 31.563 119.732 32.1952C118.879 32.8128 118.362 33.6362 118.182 34.6653L117.283 39.5393C117.238 39.7745 117.216 39.9951 117.216 40.2009C117.216 41.0537 117.523 41.7301 118.137 42.2299C118.766 42.7151 119.665 42.9577 120.833 42.9577ZM129.24 45.0309C128.97 45.0309 128.715 44.9793 128.476 44.8765C128.236 44.7737 128.041 44.6413 127.892 44.4795L134.789 36.8707L130.857 29.6368C131.246 29.3428 131.658 29.1958 132.093 29.1958C132.437 29.1958 132.752 29.262 133.036 29.3942C133.321 29.5266 133.515 29.6956 133.62 29.9016L136.226 34.93L135.531 35.6798L135.687 35.7901L140.944 29.9016C141.139 29.681 141.394 29.512 141.708 29.3942C142.023 29.262 142.36 29.1958 142.719 29.1958C142.975 29.1958 143.221 29.24 143.461 29.3282C143.716 29.4018 143.895 29.5046 144 29.6368L137.462 36.8707L141.618 44.4795C141.394 44.6705 141.169 44.8103 140.944 44.8985C140.734 44.9867 140.503 45.0309 140.248 45.0309C139.619 45.0309 139.177 44.7809 138.923 44.2811L135.912 38.6351L130.857 44.2811C130.393 44.7809 129.854 45.0309 129.24 45.0309Z" fill="white"/>
</svg>
